<svg width="93" height="104" viewBox="0 0 93 104" fill="none" xmlns="http://www.w3.org/2000/svg">
<path d="M68.9467 59.5956L67.6667 59.2222V60.5556C67.6667 66.0178 66.2883 78.5664 57.0694 92.8493L53.0401 68.8225L58.1166 58.6694L58.7568 57.3891L57.3344 57.2285C53.8661 56.837 50.2156 56.5556 46.4444 56.5556C42.6733 56.5556 39.0228 56.837 35.5545 57.2285L34.1321 57.3891L34.7722 58.6694L39.8488 68.8225L35.8194 92.8493C26.6005 78.5664 25.2222 66.0178 25.2222 60.5556V59.2207L23.9411 59.5959C17.2177 61.5651 11.523 64.3401 7.48814 67.7348C3.45119 71.1313 1 75.2208 1 79.7778V102V103H2H90.8889H91.8889V102V79.7778C91.8889 75.2228 89.4536 71.1333 85.4222 67.7354C81.3937 64.3399 75.6982 61.5647 68.9467 59.5956ZM69.6667 24.2222C69.6667 11.3922 59.2745 1 46.4444 1C33.6144 1 23.2222 11.3922 23.2222 24.2222C23.2222 37.0523 33.6144 47.4444 46.4444 47.4444C59.2745 47.4444 69.6667 37.0523 69.6667 24.2222Z" fill="#FFCF00" stroke="black" stroke-width="2"/>
</svg>
